<svg width="280" height="247" viewBox="0 0 280 247" fill="none" xmlns="http://www.w3.org/2000/svg">
<path fill-rule="evenodd" clip-rule="evenodd" d="M140 0C154.73 0 167.807 6.92003 176.016 17.6166L262.789 104.39C273.269 112.446 280 124.954 280 139C280 163.301 259.853 183 235 183C221.484 183 209.36 177.174 201.111 167.95L157.721 124.559C147.957 114.796 132.128 114.796 122.365 124.559L77.8914 169.033C77.8908 169.033 77.89 169.033 77.8894 169.033V169.033C77.8889 169.032 77.888 169.032 77.8875 169.033C69.6745 177.627 57.9789 183 45 183C20.1472 183 0 163.301 0 139C0 125.962 5.79985 114.248 15.0145 106.191C15.0241 106.183 15.0246 106.168 15.0156 106.159V106.159C15.007 106.15 15.007 106.136 15.0156 106.128L106.275 14.8688C114.52 5.74989 126.573 0 140 0ZM140 247C164.853 247 185 227.301 185 203C185 178.699 164.853 159 140 159C115.147 159 95 178.699 95 203C95 227.301 115.147 247 140 247Z" fill="url(#paint0_linear_402_12)"/>
<defs>
<linearGradient id="paint0_linear_402_12" x1="152" y1="14.5" x2="84" y2="281" gradientUnits="userSpaceOnUse">
<stop stop-color="#90A0D9"/>
<stop offset="1" stop-color="#90A0D9" stop-opacity="0"/>
</linearGradient>
</defs>
</svg>
